<svg xmlns="http://www.w3.org/2000/svg" viewBox="-12 -12 24 24" preserveAspectRatio="xMidYMid meet">
<style>
  .dots-spin { transform-origin: center; transform-box: fill-box; animation: dots-spin 60s linear infinite; }
  @keyframes dots-spin { to { transform: rotate(360deg); } }
</style>
<g class="dots-spin" fill="#fafafa">
<circle cx="0.000" cy="0.000" r="0.420"></circle><circle cx="1.000" cy="0.000" r="0.328"></circle><circle cx="0.707" cy="0.707" r="0.241"></circle><circle cx="0.000" cy="1.000" r="0.328"></circle><circle cx="-0.707" cy="0.707" r="0.241"></circle><circle cx="-1.000" cy="0.000" r="0.328"></circle><circle cx="-0.707" cy="-0.707" r="0.241"></circle><circle cx="-0.000" cy="-1.000" r="0.328"></circle><circle cx="0.707" cy="-0.707" r="0.241"></circle><circle cx="0.970" cy="0.402" r="0.138"></circle><circle cx="0.402" cy="0.970" r="0.138"></circle><circle cx="-0.402" cy="0.970" r="0.138"></circle><circle cx="-0.970" cy="0.402" r="0.138"></circle><circle cx="-0.970" cy="-0.402" r="0.138"></circle><circle cx="-0.402" cy="-0.970" r="0.138"></circle><circle cx="0.402" cy="-0.970" r="0.138"></circle><circle cx="0.970" cy="-0.402" r="0.138"></circle><circle cx="2.000" cy="0.000" r="0.279"></circle><circle cx="1.414" cy="1.414" r="0.206"></circle><circle cx="0.000" cy="2.000" r="0.279"></circle><circle cx="-1.414" cy="1.414" r="0.206"></circle><circle cx="-2.000" cy="0.000" r="0.279"></circle><circle cx="-1.414" cy="-1.414" r="0.206"></circle><circle cx="-0.000" cy="-2.000" r="0.279"></circle><circle cx="1.414" cy="-1.414" r="0.206"></circle><circle cx="1.940" cy="0.804" r="0.118"></circle><circle cx="0.804" cy="1.940" r="0.118"></circle><circle cx="-0.804" cy="1.940" r="0.118"></circle><circle cx="-1.940" cy="0.804" r="0.118"></circle><circle cx="-1.940" cy="-0.804" r="0.118"></circle><circle cx="-0.804" cy="-1.940" r="0.118"></circle><circle cx="0.804" cy="-1.940" r="0.118"></circle><circle cx="1.940" cy="-0.804" r="0.118"></circle><circle cx="3.000" cy="0.000" r="0.234"></circle><circle cx="2.121" cy="2.121" r="0.172"></circle><circle cx="0.000" cy="3.000" r="0.234"></circle><circle cx="-2.121" cy="2.121" r="0.172"></circle><circle cx="-3.000" cy="0.000" r="0.234"></circle><circle cx="-2.121" cy="-2.121" r="0.172"></circle><circle cx="-0.000" cy="-3.000" r="0.234"></circle><circle cx="2.121" cy="-2.121" r="0.172"></circle><circle cx="2.910" cy="1.205" r="0.098"></circle><circle cx="1.205" cy="2.910" r="0.098"></circle><circle cx="-1.205" cy="2.910" r="0.098"></circle><circle cx="-2.910" cy="1.205" r="0.098"></circle><circle cx="-2.910" cy="-1.205" r="0.098"></circle><circle cx="-1.205" cy="-2.910" r="0.098"></circle><circle cx="1.205" cy="-2.910" r="0.098"></circle><circle cx="2.910" cy="-1.205" r="0.098"></circle><circle cx="4.000" cy="0.000" r="0.191"></circle><circle cx="2.828" cy="2.828" r="0.141"></circle><circle cx="0.000" cy="4.000" r="0.191"></circle><circle cx="-2.828" cy="2.828" r="0.141"></circle><circle cx="-4.000" cy="0.000" r="0.191"></circle><circle cx="-2.828" cy="-2.828" r="0.141"></circle><circle cx="-0.000" cy="-4.000" r="0.191"></circle><circle cx="2.828" cy="-2.828" r="0.141"></circle><circle cx="4.019" cy="1.665" r="0.056"></circle><circle cx="1.665" cy="4.019" r="0.056"></circle><circle cx="-1.665" cy="4.019" r="0.056"></circle><circle cx="-4.019" cy="1.665" r="0.056"></circle><circle cx="-4.019" cy="-1.665" r="0.056"></circle><circle cx="-1.665" cy="-4.019" r="0.056"></circle><circle cx="1.665" cy="-4.019" r="0.056"></circle><circle cx="4.019" cy="-1.665" r="0.056"></circle><circle cx="5.000" cy="0.000" r="0.152"></circle><circle cx="3.536" cy="3.536" r="0.112"></circle><circle cx="0.000" cy="5.000" r="0.152"></circle><circle cx="-3.536" cy="3.536" r="0.112"></circle><circle cx="-5.000" cy="0.000" r="0.152"></circle><circle cx="-3.536" cy="-3.536" r="0.112"></circle><circle cx="-0.000" cy="-5.000" r="0.152"></circle><circle cx="3.536" cy="-3.536" r="0.112"></circle><circle cx="4.989" cy="2.066" r="0.045"></circle><circle cx="2.066" cy="4.989" r="0.045"></circle><circle cx="-2.066" cy="4.989" r="0.045"></circle><circle cx="-4.989" cy="2.066" r="0.045"></circle><circle cx="-4.989" cy="-2.066" r="0.045"></circle><circle cx="-2.066" cy="-4.989" r="0.045"></circle><circle cx="2.066" cy="-4.989" r="0.045"></circle><circle cx="4.989" cy="-2.066" r="0.045"></circle><circle cx="3.671" cy="2.790" r="0.020"></circle><circle cx="3.025" cy="4.360" r="0.020"></circle><circle cx="1.596" cy="5.301" r="0.020"></circle><circle cx="-0.104" cy="4.780" r="0.020"></circle><circle cx="-1.564" cy="4.481" r="0.020"></circle><circle cx="-3.335" cy="4.386" r="0.020"></circle><circle cx="-4.394" cy="3.049" r="0.020"></circle><circle cx="-4.430" cy="1.334" r="0.020"></circle><circle cx="-4.973" cy="-0.108" r="0.020"></circle><circle cx="-5.293" cy="-1.848" r="0.020"></circle><circle cx="-4.056" cy="-3.084" r="0.020"></circle><circle cx="-2.620" cy="-3.775" r="0.020"></circle><circle cx="-1.509" cy="-5.012" r="0.020"></circle><circle cx="0.121" cy="-5.569" r="0.020"></circle><circle cx="1.596" cy="-4.573" r="0.020"></circle><circle cx="2.842" cy="-3.738" r="0.020"></circle><circle cx="4.486" cy="-3.113" r="0.020"></circle><circle cx="5.182" cy="-1.560" r="0.020"></circle><circle cx="4.658" cy="0.101" r="0.020"></circle><circle cx="4.628" cy="1.615" r="0.020"></circle><circle cx="6.000" cy="0.000" r="0.116"></circle><circle cx="4.243" cy="4.243" r="0.086"></circle><circle cx="0.000" cy="6.000" r="0.116"></circle><circle cx="-4.243" cy="4.243" r="0.086"></circle><circle cx="-6.000" cy="0.000" r="0.116"></circle><circle cx="-4.243" cy="-4.243" r="0.086"></circle><circle cx="-0.000" cy="-6.000" r="0.116"></circle><circle cx="4.243" cy="-4.243" r="0.086"></circle><circle cx="5.959" cy="2.468" r="0.034"></circle><circle cx="2.468" cy="5.959" r="0.034"></circle><circle cx="-2.468" cy="5.959" r="0.034"></circle><circle cx="-5.959" cy="2.468" r="0.034"></circle><circle cx="-5.959" cy="-2.468" r="0.034"></circle><circle cx="-2.468" cy="-5.959" r="0.034"></circle><circle cx="2.468" cy="-5.959" r="0.034"></circle><circle cx="5.959" cy="-2.468" r="0.034"></circle><circle cx="4.249" cy="4.204" r="0.015"></circle><circle cx="3.343" cy="5.719" r="0.015"></circle><circle cx="1.619" cy="5.915" r="0.015"></circle><circle cx="0.030" cy="5.613" r="0.015"></circle><circle cx="-1.582" cy="6.034" r="0.015"></circle><circle cx="-3.268" cy="5.731" r="0.015"></circle><circle cx="-4.135" cy="4.180" r="0.015"></circle><circle cx="-4.925" cy="2.879" r="0.015"></circle><circle cx="-6.238" cy="1.708" r="0.015"></circle><circle cx="-6.445" cy="0.035" r="0.015"></circle><circle cx="-5.502" cy="-1.443" r="0.015"></circle><circle cx="-5.131" cy="-2.925" r="0.015"></circle><circle cx="-4.697" cy="-4.646" r="0.015"></circle><circle cx="-3.133" cy="-5.360" r="0.015"></circle><circle cx="-1.481" cy="-5.411" r="0.015"></circle><circle cx="-0.033" cy="-6.163" r="0.015"></circle><circle cx="1.678" cy="-6.402" r="0.015"></circle><circle cx="2.947" cy="-5.168" r="0.015"></circle><circle cx="3.985" cy="-4.028" r="0.015"></circle><circle cx="5.532" cy="-3.234" r="0.015"></circle><circle cx="6.269" cy="-1.716" r="0.015"></circle><circle cx="5.734" cy="-0.031" r="0.015"></circle><circle cx="5.649" cy="1.481" r="0.015"></circle><circle cx="5.715" cy="3.258" r="0.015"></circle><circle cx="7.000" cy="0.000" r="0.084"></circle><circle cx="4.950" cy="4.950" r="0.062"></circle><circle cx="0.000" cy="7.000" r="0.084"></circle><circle cx="-4.950" cy="4.950" r="0.062"></circle><circle cx="-7.000" cy="0.000" r="0.084"></circle><circle cx="-4.950" cy="-4.950" r="0.062"></circle><circle cx="-0.000" cy="-7.000" r="0.084"></circle><circle cx="4.950" cy="-4.950" r="0.062"></circle><circle cx="6.929" cy="2.870" r="0.016"></circle><circle cx="2.870" cy="6.929" r="0.016"></circle><circle cx="-2.870" cy="6.929" r="0.016"></circle><circle cx="-6.929" cy="2.870" r="0.016"></circle><circle cx="-6.929" cy="-2.870" r="0.016"></circle><circle cx="-2.870" cy="-6.929" r="0.016"></circle><circle cx="2.870" cy="-6.929" r="0.016"></circle><circle cx="6.929" cy="-2.870" r="0.016"></circle><circle cx="4.588" cy="5.902" r="0.011"></circle><circle cx="3.161" cy="6.777" r="0.011"></circle><circle cx="1.414" cy="6.567" r="0.011"></circle><circle cx="-0.086" cy="6.910" r="0.011"></circle><circle cx="-1.788" cy="7.409" r="0.011"></circle><circle cx="-3.224" cy="6.488" r="0.011"></circle><circle cx="-4.199" cy="5.133" r="0.011"></circle><circle cx="-5.657" cy="4.398" r="0.011"></circle><circle cx="-6.926" cy="3.230" r="0.011"></circle><circle cx="-6.829" cy="1.470" r="0.011"></circle><circle cx="-6.678" cy="-0.083" r="0.011"></circle><circle cx="-7.207" cy="-1.739" r="0.011"></circle><circle cx="-6.744" cy="-3.352" r="0.011"></circle><circle cx="-5.236" cy="-4.283" r="0.011"></circle><circle cx="-4.201" cy="-5.404" r="0.011"></circle><circle cx="-3.208" cy="-6.879" r="0.011"></circle><circle cx="-1.540" cy="-7.155" r="0.011"></circle><circle cx="0.082" cy="-6.643" r="0.011"></circle><circle cx="1.663" cy="-6.892" r="0.011"></circle><circle cx="3.404" cy="-6.851" r="0.011"></circle><circle cx="4.469" cy="-5.464" r="0.011"></circle><circle cx="5.251" cy="-4.082" r="0.011"></circle><circle cx="6.658" cy="-3.105" r="0.011"></circle><circle cx="7.406" cy="-1.594" r="0.011"></circle><circle cx="6.820" cy="0.085" r="0.011"></circle><circle cx="6.597" cy="1.592" r="0.011"></circle><circle cx="6.761" cy="3.360" r="0.011"></circle><circle cx="5.718" cy="4.677" r="0.011"></circle><circle cx="8.000" cy="0.000" r="0.057"></circle><circle cx="5.657" cy="5.657" r="0.042"></circle><circle cx="0.000" cy="8.000" r="0.057"></circle><circle cx="-5.657" cy="5.657" r="0.042"></circle><circle cx="-8.000" cy="0.000" r="0.057"></circle><circle cx="-5.657" cy="-5.657" r="0.042"></circle><circle cx="-0.000" cy="-8.000" r="0.057"></circle><circle cx="5.657" cy="-5.657" r="0.042"></circle><circle cx="7.899" cy="3.272" r="0.011"></circle><circle cx="3.272" cy="7.899" r="0.011"></circle><circle cx="-3.272" cy="7.899" r="0.011"></circle><circle cx="-7.899" cy="3.272" r="0.011"></circle><circle cx="-7.899" cy="-3.272" r="0.011"></circle><circle cx="-3.272" cy="-7.899" r="0.011"></circle><circle cx="3.272" cy="-7.899" r="0.011"></circle><circle cx="7.899" cy="-3.272" r="0.011"></circle><circle cx="4.386" cy="7.472" r="0.008"></circle><circle cx="2.633" cy="7.577" r="0.008"></circle><circle cx="1.059" cy="7.618" r="0.008"></circle><circle cx="-0.490" cy="8.405" r="0.008"></circle><circle cx="-2.156" cy="8.286" r="0.008"></circle><circle cx="-3.398" cy="7.018" r="0.008"></circle><circle cx="-4.735" cy="6.263" r="0.008"></circle><circle cx="-6.427" cy="5.718" r="0.008"></circle><circle cx="-7.205" cy="4.229" r="0.008"></circle><circle cx="-7.243" cy="2.517" r="0.008"></circle><circle cx="-8.015" cy="1.114" r="0.008"></circle><circle cx="-8.655" cy="-0.505" r="0.008"></circle><circle cx="-7.835" cy="-2.039" r="0.008"></circle><circle cx="-6.900" cy="-3.341" r="0.008"></circle><circle cx="-6.662" cy="-5.036" r="0.008"></circle><circle cx="-5.720" cy="-6.428" r="0.008"></circle><circle cx="-3.976" cy="-6.774" r="0.008"></circle><circle cx="-2.559" cy="-7.363" r="0.008"></circle><circle cx="-1.178" cy="-8.478" r="0.008"></circle><circle cx="0.490" cy="-8.408" r="0.008"></circle><circle cx="1.937" cy="-7.445" r="0.008"></circle><circle cx="3.494" cy="-7.216" r="0.008"></circle><circle cx="5.225" cy="-6.911" r="0.008"></circle><circle cx="6.105" cy="-5.432" r="0.008"></circle><circle cx="6.600" cy="-3.874" r="0.008"></circle><circle cx="7.820" cy="-2.717" r="0.008"></circle><circle cx="8.554" cy="-1.189" r="0.008"></circle><circle cx="7.905" cy="0.461" r="0.008"></circle><circle cx="7.496" cy="1.951" r="0.008"></circle><circle cx="7.658" cy="3.708" r="0.008"></circle><circle cx="6.768" cy="5.117" r="0.008"></circle><circle cx="5.137" cy="5.774" r="0.008"></circle><circle cx="9.000" cy="0.000" r="0.033"></circle><circle cx="6.364" cy="6.364" r="0.024"></circle><circle cx="0.000" cy="9.000" r="0.033"></circle><circle cx="-6.364" cy="6.364" r="0.024"></circle><circle cx="-9.000" cy="0.000" r="0.033"></circle><circle cx="-6.364" cy="-6.364" r="0.024"></circle><circle cx="-0.000" cy="-9.000" r="0.033"></circle><circle cx="6.364" cy="-6.364" r="0.024"></circle><circle cx="8.869" cy="3.674" r="0.006"></circle><circle cx="3.674" cy="8.869" r="0.006"></circle><circle cx="-3.674" cy="8.869" r="0.006"></circle><circle cx="-8.869" cy="3.674" r="0.006"></circle><circle cx="-8.869" cy="-3.674" r="0.006"></circle><circle cx="-3.674" cy="-8.869" r="0.006"></circle><circle cx="3.674" cy="-8.869" r="0.006"></circle><circle cx="8.869" cy="-3.674" r="0.006"></circle><circle cx="3.664" cy="8.646" r="0.004"></circle><circle cx="1.950" cy="8.471" r="0.004"></circle><circle cx="0.470" cy="9.083" r="0.004"></circle><circle cx="-1.187" cy="9.617" r="0.004"></circle><circle cx="-2.676" cy="8.732" r="0.004"></circle><circle cx="-3.947" cy="7.734" r="0.004"></circle><circle cx="-5.635" cy="7.468" r="0.004"></circle><circle cx="-7.049" cy="6.565" r="0.004"></circle><circle cx="-7.457" cy="4.836" r="0.004"></circle><circle cx="-8.105" cy="3.434" r="0.004"></circle><circle cx="-9.325" cy="2.147" r="0.004"></circle><circle cx="-9.444" cy="0.489" r="0.004"></circle><circle cx="-8.654" cy="-1.068" r="0.004"></circle><circle cx="-8.626" cy="-2.643" r="0.004"></circle><circle cx="-8.623" cy="-4.401" r="0.004"></circle><circle cx="-7.351" cy="-5.547" r="0.004"></circle><circle cx="-5.910" cy="-6.346" r="0.004"></circle><circle cx="-5.050" cy="-7.788" r="0.004"></circle><circle cx="-3.770" cy="-8.897" r="0.004"></circle><circle cx="-2.009" cy="-8.726" r="0.004"></circle><circle cx="-0.453" cy="-8.744" r="0.004"></circle><circle cx="1.166" cy="-9.444" r="0.004"></circle><circle cx="2.788" cy="-9.100" r="0.004"></circle><circle cx="3.981" cy="-7.801" r="0.004"></circle><circle cx="5.391" cy="-7.145" r="0.004"></circle><circle cx="7.070" cy="-6.585" r="0.004"></circle><circle cx="7.790" cy="-5.052" r="0.004"></circle><circle cx="7.984" cy="-3.383" r="0.004"></circle><circle cx="8.972" cy="-2.065" r="0.004"></circle><circle cx="9.669" cy="-0.501" r="0.004"></circle><circle cx="8.957" cy="1.105" r="0.004"></circle><circle cx="8.336" cy="2.554" r="0.004"></circle><circle cx="8.421" cy="4.298" r="0.004"></circle><circle cx="7.640" cy="5.765" r="0.004"></circle><circle cx="6.001" cy="6.443" r="0.004"></circle><circle cx="4.835" cy="7.455" r="0.004"></circle><circle cx="10.000" cy="0.000" r="0.015"></circle><circle cx="7.071" cy="7.071" r="0.011"></circle><circle cx="0.000" cy="10.000" r="0.015"></circle><circle cx="-7.071" cy="7.071" r="0.011"></circle><circle cx="-10.000" cy="0.000" r="0.015"></circle><circle cx="-7.071" cy="-7.071" r="0.011"></circle><circle cx="-0.000" cy="-10.000" r="0.015"></circle><circle cx="7.071" cy="-7.071" r="0.011"></circle><circle cx="9.839" cy="4.076" r="0.003"></circle><circle cx="4.076" cy="9.839" r="0.003"></circle><circle cx="-4.076" cy="9.839" r="0.003"></circle><circle cx="-9.839" cy="4.076" r="0.003"></circle><circle cx="-9.839" cy="-4.076" r="0.003"></circle><circle cx="-4.076" cy="-9.839" r="0.003"></circle><circle cx="4.076" cy="-9.839" r="0.003"></circle><circle cx="9.839" cy="-4.076" r="0.003"></circle><circle cx="2.654" cy="9.561" r="0.002"></circle><circle cx="1.113" cy="9.748" r="0.002"></circle><circle cx="-0.459" cy="10.568" r="0.002"></circle><circle cx="-2.089" cy="10.281" r="0.002"></circle><circle cx="-3.411" cy="9.131" r="0.002"></circle><circle cx="-4.934" cy="8.727" r="0.002"></circle><circle cx="-6.657" cy="8.374" r="0.002"></circle><circle cx="-7.553" cy="6.924" r="0.002"></circle><circle cx="-8.079" cy="5.351" r="0.002"></circle><circle cx="-9.358" cy="4.268" r="0.002"></circle><circle cx="-10.298" cy="2.859" r="0.002"></circle><circle cx="-9.925" cy="1.134" r="0.002"></circle><circle cx="-9.757" cy="-0.423" r="0.002"></circle><circle cx="-10.312" cy="-2.095" r="0.002"></circle><circle cx="-9.883" cy="-3.692" r="0.002"></circle><circle cx="-8.520" cy="-4.817" r="0.002"></circle><circle cx="-7.793" cy="-6.196" r="0.002"></circle><circle cx="-7.214" cy="-7.869" r="0.002"></circle><circle cx="-5.699" cy="-8.605" r="0.002"></circle><circle cx="-4.022" cy="-8.819" r="0.002"></circle><circle cx="-2.731" cy="-9.837" r="0.002"></circle><circle cx="-1.215" cy="-10.635" r="0.002"></circle><circle cx="0.436" cy="-10.052" r="0.002"></circle><circle cx="1.938" cy="-9.536" r="0.002"></circle><circle cx="3.660" cy="-9.798" r="0.002"></circle><circle cx="5.218" cy="-9.229" r="0.002"></circle><circle cx="6.121" cy="-7.700" r="0.002"></circle><circle cx="7.291" cy="-6.685" r="0.002"></circle><circle cx="8.873" cy="-5.877" r="0.002"></circle><circle cx="9.457" cy="-4.313" r="0.002"></circle><circle cx="9.354" cy="-2.597" r="0.002"></circle><circle cx="10.068" cy="-1.150" r="0.002"></circle><circle cx="10.700" cy="0.464" r="0.002"></circle><circle cx="9.933" cy="2.018" r="0.002"></circle><circle cx="9.093" cy="3.397" r="0.002"></circle><circle cx="9.046" cy="5.115" r="0.002"></circle><circle cx="8.332" cy="6.624" r="0.002"></circle><circle cx="6.686" cy="7.293" r="0.002"></circle><circle cx="5.430" cy="8.200" r="0.002"></circle><circle cx="4.398" cy="9.644" r="0.002"></circle>
</g>
</svg>